#!OML:ASF H:\GeneralSubjects\Female5\Project 1\Capture day 1\Session 1\Female5.ASF
:FULLY-SPECIFIED
:DEGREES
496
root 12.7466 15.7886 -5.5777 -543.573 -46.8592 -168.774
lowerback 13.6412 2.99596 4.74169
upperback -11.6641 4.93269 0.949156
thorax -21.3241 1.32011 -2.96414
lowerneck -12.6038 9.06819 12.2243
upperneck 35.5464 10.1144 -4.45695
head 15.5782 4.72806 -2.40724
rclavicle -8.60738e-014 -4.41302e-014
rhumerus -55.7771 12.8854 -83.3716
rradius 32.2118
rwrist -11.5452
rhand -24.7961 -21.6813
rfingers 7.12502
rthumb 1.70846 -51.6543
lclavicle -8.60738e-014 -4.41302e-014
lhumerus -53.8807 -4.76055 73.6007
lradius 30.7121
lwrist -2.3597
lhand -21.4269 31.1415
lfingers 7.12502
lthumb 4.96218 61.0634
rfemur -10.6435 13.6729 31.4288
rtibia 6.81764
rfoot -8.45823 -16.6595
rtoes -20.0312
lfemur -8.61909 -0.918032 -18.8026
ltibia 59.0621
lfoot -16.4398 18.591
ltoes -41.2134
497
root 12.6031 15.8342 -5.77927 -543.563 -47.9501 -168.431
lowerback 13.6875 3.12043 4.8914
upperback -11.7413 5.13415 0.846809
thorax -21.4236 1.36725 -3.23594
lowerneck -12.2423 8.94056 12.3664
upperneck 35.389 10.059 -4.80169
head 15.4446 4.69147 -2.59868
rclavicle -1.40143e-014 -6.36111e-015
rhumerus -55.2597 13.5992 -83.3581
rradius 32.8155
rwrist -11.6805
rhand -25.3025 -21.8504
rfingers 7.12502
rthumb 1.21944 -51.8266
lclavicle -1.40143e-014 -6.36111e-015
lhumerus -54.2282 -5.20682 73.7792
lradius 30.7379
lwrist -3.15816
lhand -20.9447 31.2734
lfingers 7.12502
lthumb 5.42772 61.1839
rfemur -9.49831 13.6728 31.7596
rtibia 6.14914
rfoot -9.46988 -17.3618
rtoes -19.7464
lfemur -12.8978 -0.598308 -18.9935
ltibia 62.2142
lfoot -20.03 16.5067
ltoes -38.7093
498
root 12.4536 15.876 -5.97095 -543.371 -48.9986 -168.372
lowerback 13.6432 3.23589 4.85229
upperback -11.7175 5.27402 0.734119
thorax -21.3358 1.4299 -3.38951
lowerneck -12.5613 8.88236 12.3564
upperneck 35.7939 10.0255 -5.02938
head 15.7302 4.63717 -2.69863
rclavicle -3.62782e-014 -2.54444e-014
rhumerus -54.4901 14.5428 -83.3212
rradius 33.2947
rwrist -11.9154
rhand -25.4493 -21.3572
rfingers 7.12502
rthumb 1.07765 -51.3343
lclavicle -3.62782e-014 -2.54444e-014
lhumerus -54.2056 -5.38126 73.8611
lradius 30.6713
lwrist -3.58845
lhand -20.7583 30.6357
lfingers 7.12502
lthumb 5.60771 60.5415
rfemur -8.27729 13.8775 31.8899
rtibia 5.37508
rfoot -10.7859 -18.1237
rtoes -18.0025
lfemur -16.9501 -0.325569 -19.6185
ltibia 64.086
lfoot -21.8968 15.3126
ltoes -40.2073
499
root 12.3014 15.9122 -6.15688 -543.177 -49.9129 -168.315
lowerback 13.2708 3.31474 4.61996
upperback -11.4965 5.32762 0.813405
thorax -20.7906 1.53838 -3.15171
lowerneck -12.7549 8.93083 12.1193
upperneck 35.8192 10.2133 -5.14353
head 15.7975 4.67539 -2.66402
rclavicle -7.0171e-014 -6.24184e-014
rhumerus -53.1686 15.8997 -83.0194
rradius 33.5827
rwrist -11.8147
rhand -25.5166 -21.2173
rfingers 7.12502
rthumb 1.01261 -51.1946
lclavicle -7.0171e-014 -6.24184e-014
lhumerus -53.8765 -4.98632 73.9581
lradius 30.6957
lwrist -3.74225
lhand -20.7051 30.7938
lfingers 7.12502
lthumb 5.65912 60.6982
rfemur -7.06434 14.0402 32.0666
rtibia 4.57137
rfoot -11.8531 -18.7983
rtoes -17.1401
lfemur -20.7102 -0.0420504 -20.2918
ltibia 64.7346
lfoot -23.6643 13.0508
ltoes -41.3393
500
root 12.1464 15.9423 -6.33355 -542.653 -50.7857 -168.561
lowerback 13.5903 3.51181 4.38752
upperback -11.6681 5.5515 0.662945
thorax -21.2381 1.62584 -3.29925
lowerneck -12.859 8.88889 11.8086
upperneck 36.0673 10.1534 -4.90669
head 15.8949 4.63903 -2.52211
rclavicle -5.61567e-014 -1.82882e-014
rhumerus -52.443 16.5585 -82.5888
rradius 33.8528
rwrist -11.2013
rhand -25.6385 -22.3582
rfingers 7.12502
rthumb 0.894904 -52.3361
lclavicle -5.61567e-014 -1.82882e-014
lhumerus -54.7309 -5.81916 74.5897
lradius 31.8624
lwrist -3.13875
lhand -20.9484 30.6979
lfingers 7.12502
lthumb 5.42418 60.6085
rfemur -6.00436 13.9873 31.9887
rtibia 3.78656
rfoot -12.5556 -19.4098
rtoes -17.7616
lfemur -24.3214 0.198095 -21.2926
ltibia 64.5153
lfoot -24.3918 11.3595
ltoes -43.9339
501
root 11.9914 15.9638 -6.50721 -542.607 -51.5706 -168.363
lowerback 13.7163 3.6534 4.39757
upperback -11.6889 5.76398 0.639057
thorax -21.3351 1.71027 -3.40908
lowerneck -12.679 8.82844 11.7246
upperneck 36.0106 10.148 -4.98842
head 15.8205 4.62462 -2.54888
rclavicle 1.63003e-014 2.42517e-014
rhumerus -51.3731 17.1045 -81.9444
rradius 33.9521
rwrist -10.4531
rhand -25.7599 -23.2102
rfingers 7.12502
rthumb 0.777595 -53.1885
lclavicle 1.63003e-014 2.42517e-014
lhumerus -55.4658 -6.28876 75.0962
lradius 32.933
lwrist -2.30135
lhand -22.2697 29.6352
lfingers 7.12502
lthumb 4.14834 59.5745
rfemur -4.84143 14.0328 32.2954
rtibia 3.08956
rfoot -13.4729 -20.0648
rtoes -17.7892
lfemur -27.6011 0.524106 -21.9702
ltibia 63.5787
lfoot -24.9411 8.44175
ltoes -43.4292
502
root 11.835 15.9745 -6.68579 -543.713 -52.2789 -167.154
lowerback 13.8428 3.73055 4.93049
upperback -11.5213 6.05306 0.839041
thorax -21.1412 1.79875 -3.55665
lowerneck -12.5887 8.81974 11.6452
upperneck 35.8621 10.2631 -5.18486
head 15.7443 4.64932 -2.59669
rclavicle -5.19822e-014 -4.33351e-014
rhumerus -50.1421 17.6934 -81.2003
rradius 33.8841
rwrist -9.75503
rhand -25.5018 -22.2999
rfingers 7.12502
rthumb 1.02696 -52.2771
lclavicle -5.19822e-014 -4.33351e-014
lhumerus -55.5731 -6.15797 75.3177
lradius 33.4412
lwrist -1.07997
lhand -23.6635 28.9107
lfingers 7.12502
lthumb 2.80231 58.872
rfemur -3.22401 14.2209 33.4655
rtibia 2.31559
rfoot -14.5702 -20.752
rtoes -17.2893
lfemur -30.2275 1.05693 -21.8547
ltibia 61.8173
lfoot -25.021 5.02356
ltoes -40.5596
503
root 11.6678 15.977 -6.85964 -544.673 -53.1251 -166.104
lowerback 14.2469 3.84155 5.45769
upperback -11.8388 6.40945 0.90233
thorax -21.1747 1.84058 -4.02968
lowerneck -12.0631 8.69323 11.9292
upperneck 35.6111 10.1495 -5.44286
head 15.5245 4.6253 -2.7884
rclavicle 4.69132e-014 1.31198e-014
rhumerus -49.3266 17.8127 -80.5481
rradius 33.69
rwrist -9.11745
rhand -25.0777 -21.5657
rfingers 7.12502
rthumb 1.43651 -51.5407
lclavicle 4.69132e-014 1.31198e-014
lhumerus -55.8657 -6.56072 75.5249
lradius 34.2629
lwrist 0.347096
lhand -24.5842 28.6988
lfingers 7.12502
lthumb 1.91315 58.67
rfemur -1.54033 14.2467 34.4725
rtibia 1.36487
rfoot -15.8895 -21.2556
rtoes -15.833
lfemur -32.4712 1.37526 -21.9723
ltibia 59.2199
lfoot -25.0442 2.15914
ltoes -38.3633
504
root 11.492 15.9712 -7.03093 -545.423 -53.8887 -165.207
lowerback 14.3102 3.94016 5.87819
upperback -11.8363 6.67108 0.960241
thorax -21.1422 1.8992 -4.28149
lowerneck -11.9145 8.63525 11.9684
upperneck 35.54 10.1432 -5.60958
head 15.4681 4.61646 -2.86994
rclavicle 1.17283e-014 -4.77083e-015
rhumerus -48.2445 18.0852 -79.8774
rradius 33.4859
rwrist -8.79197
rhand -25.0173 -21.7712
rfingers 7.12502
rthumb 1.49483 -51.7457
lclavicle 1.17283e-014 -4.77083e-015
lhumerus -56.0341 -6.55932 75.5503
lradius 35.1321
lwrist 1.02322
lhand -25.7407 28.7573
lfingers 7.12502
lthumb 0.796154 58.7356
rfemur 0.0167234 14.3835 35.3836
rtibia 0.489135
rfoot -17.4382 -21.8302
rtoes -14.1019
lfemur -34.4324 1.63918 -22.2262
ltibia 55.9382
lfoot -25.4015 -1.687
ltoes -35.632
505
root 11.313 15.9602 -7.20243 -546.659 -54.404 -163.794
lowerback 14.4066 4.04264 6.44375
upperback -11.8004 7.00495 1.1972
thorax -21.0845 1.98715 -4.43017
lowerneck -11.822 8.63386 11.871
upperneck 35.4265 10.2281 -5.68981
head 15.3975 4.64041 -2.87076
rclavicle -3.97569e-016 4.53229e-014
rhumerus -47.1514 18.4859 -79.2322
rradius 33.3622
rwrist -8.64632
rhand -25.1425 -21.8933
rfingers 7.12502
rthumb 1.37389 -51.8686
lclavicle -3.97569e-016 4.53229e-014
lhumerus -56.3117 -6.41897 75.6567
lradius 35.8136
lwrist 1.41747
lhand -25.9127 28.5529
lfingers 7.12502
lthumb 0.630032 58.5317
rfemur 1.52039 14.6862 36.7158
rtibia -0.157127
rfoot -18.7026 -22.6882
rtoes -14.1025
lfemur -35.9133 2.06003 -22.0098
ltibia 51.7972
lfoot -25.5659 -3.88167
ltoes -34.6416
506
root 11.1263 15.9467 -7.37027 -548.011 -54.8914 -162.116
lowerback 14.359 4.09622 7.07928
upperback -11.7903 7.27293 1.46554
thorax -20.9656 2.04167 -4.54604
lowerneck -11.9395 8.70395 11.7671
upperneck 35.4627 10.3379 -5.59191
head 15.44 4.69152 -2.78517
rclavicle 3.91606e-014 2.14687e-014
rhumerus -46.0819 18.8296 -78.6266
rradius 33.2605
rwrist -8.55185
rhand -25.2726 -21.8397
rfingers 7.12502
rthumb 1.24832 -51.8158
lclavicle 3.91606e-014 2.14687e-014
lhumerus -56.674 -6.44725 75.7997
lradius 36.4132
lwrist 1.95147
lhand -23.7095 27.3817
lfingers 7.12502
lthumb 2.7579 57.3436
rfemur 2.83618 14.9104 38.1456
rtibia -0.686921
rfoot -19.9674 -23.2357
rtoes -13.1278
lfemur -37.0267 2.29426 -21.5809
ltibia 46.7591
lfoot -26.2211 -2.73825
ltoes -37.6843
507
root 10.9318 15.929 -7.53567 -549.255 -55.3423 -160.388
lowerback 14.0371 4.20085 7.77052
upperback -11.8505 7.57057 1.63643
thorax -20.7269 2.09779 -4.78295
lowerneck -11.7895 8.66544 11.8048
upperneck 35.2072 10.2901 -5.54642
head 15.2738 4.70016 -2.77744
rclavicle 4.60187e-014 5.84427e-014
rhumerus -45.1868 18.8906 -78.1029
rradius 33.1814
rwrist -8.47701
rhand -25.3878 -21.8679
rfingers 7.12502
rthumb 1.13702 -51.8446
lclavicle 4.60187e-014 5.84427e-014
lhumerus -56.9353 -6.57915 75.7352
lradius 36.862
lwrist 2.21378
lhand -25.6011 30.2186
lfingers 7.12502
lthumb 0.93103 60.1963
rfemur 3.92625 14.9611 39.5014
rtibia -1.16728
rfoot -21.2146 -23.4466
rtoes -11.2265
lfemur -37.7222 2.22755 -21.0354
ltibia 40.8573
lfoot -27.8352 -0.156233
ltoes -43.0488
508
root 10.7322 15.9065 -7.69613 -549.901 -55.7732 -159.152
lowerback 13.8793 4.42116 8.34969
upperback -12.1868 7.9849 1.53567
thorax -20.9103 2.1484 -5.33037
lowerneck -11.8259 8.54259 11.8326
upperneck 35.3573 10.0184 -5.30729
head 15.3085 4.62247 -2.73146
rclavicle 6.6891e-014 -1.59028e-015
rhumerus -44.7437 18.342 -77.6874
rradius 33.0385
rwrist -8.10418
rhand -25.5142 -21.5635
rfingers 7.12502
rthumb 1.01493 -51.5408
lclavicle 6.6891e-014 -1.59028e-015
lhumerus -57.3134 -7.06605 75.6107
lradius 37.0352
lwrist 2.50118
lhand -24.8099 27.9172
lfingers 7.12502
lthumb 1.69512 57.8903
rfemur 4.73799 14.9699 40.4616
rtibia -1.56495
rfoot -22.1534 -23.7612
rtoes -10.9448
lfemur -38.0005 1.82333 -20.6857
ltibia 34.1657
lfoot -30.1589 2.9403
ltoes -48.3308
